<?xml version="1.0" standalone="no"?>
<!DOCTYPE svg PUBLIC "-//W3C//DTD SVG 20010904//EN"
 "http://www.w3.org/TR/2001/REC-SVG-20010904/DTD/svg10.dtd">
<svg version="1.0" xmlns="http://www.w3.org/2000/svg"
 width="2500.000000pt" height="2500.000000pt" viewBox="0 0 2500.000000 2500.000000"
 preserveAspectRatio="xMidYMid meet">

<g transform="translate(0.000000,2500.000000) scale(0.100000,-0.100000)"
fill="#000000" stroke="none">
<path d="M11490 21111 c-90 -29 -141 -60 -207 -127 -81 -80 -128 -176 -143
-289 -7 -54 -10 -541 -8 -1490 l3 -1410 24 -63 c52 -140 158 -253 290 -309
l66 -28 1873 -3 1872 -2 0 -253 0 -252 2110 2110 c1161 1160 2110 2116 2110
2122 0 10 -798 13 -3967 12 -3775 0 -3971 -1 -4023 -18z"/>
<path d="M17368 18143 l-2108 -2108 -3 -3000 c-3 -2798 -4 -3008 -20 -3115
-96 -628 -362 -1157 -801 -1596 -154 -153 -252 -233 -434 -355 -378 -251 -801
-403 -1256 -449 -151 -16 -513 -8 -656 15 -486 75 -936 272 -1323 577 -121 96
-345 319 -441 438 -223 279 -408 630 -502 955 -65 225 -96 410 -113 685 -9
132 -31 240 -49 240 -4 0 -719 -712 -1590 -1583 l-1582 -1582 95 -149 c1135
-1771 2975 -2938 5040 -3196 279 -34 382 -41 741 -47 373 -6 586 3 895 38
1997 223 3804 1304 4969 2973 638 915 1054 1994 1194 3101 53 418 50 76 53
5050 2 2525 2 4731 1 4903 l-3 312 -2107 -2107z"/>
<path d="M5863 10699 c-137 -43 -263 -167 -314 -307 -40 -113 -30 -284 42
-710 97 -572 282 -1171 528 -1712 34 -74 65 -138 69 -142 4 -4 660 645 1457
1442 l1450 1450 -1585 -1 c-1549 0 -1586 -1 -1647 -20z"/>
</g>
</svg>
