<?xml version="1.0" encoding="utf-8"?>
<svg viewBox="0 0 679 678" width="679" height="678" fill="none" xmlns="http://www.w3.org/2000/svg">
  <ellipse fill="#CC6C06" rx="20.035" ry="19.496" transform="matrix(0.999997, 0.002464, -0.002602, 0.999997, 341.084997, 322.545995)"/>
  <path fill="#1F51FF" d="M490.135 52L494.871 97.944L516.713 104.056L538.586 98.0516L543.561 52.1316L490.135 52ZM533.673 61.3912L532.99 66.8786L516.934 72.5603L516.892 72.5718L532.405 72.61L530.58 89.6184L516.909 92.9153L503.172 89.4928L502.304 80.9146L509.107 80.9314L509.541 85.3771L516.855 86.9386L524.47 85.1702L525.003 78.0229L501.866 77.9079L501.866 77.8963L501.838 77.9078L501.351 72.5335L516.962 67.1525L517.867 66.8414L500.768 66.7993L499.975 61.3082L533.673 61.3912Z"/>
  <path fill="#EE4B2B" d="M314.135 0L318.871 45.944L340.643 52.0554L362.586 46.0516L367.561 0.131618L314.135 0ZM356.976 14.9482L331.404 14.8852L331.96 20.6194L356.391 20.6796L354.454 37.8966L340.825 40.9963L340.825 41.0311L340.672 41.0308L326.948 37.8288L326.136 29.0303L332.773 29.0466L333.248 33.4693L340.687 35.1703L348.163 33.506L349.016 26.2898L325.796 26.2326L324.059 9.3316L357.603 9.41423L356.976 14.9482Z"/>
  <path fill="#FBEC5D" d="M 601.443 405.819 L 601.308 457.809 L 654.734 457.94 L 654.869 405.951 L 601.443 405.819 Z M 630.412 446.438 C 630.399 451.498 627.34 453.8 622.892 453.789 C 618.873 453.779 616.553 451.754 615.366 449.302 L 619.463 446.91 C 620.247 448.27 620.959 449.42 622.688 449.425 C 624.334 449.429 625.385 448.805 625.391 446.356 L 625.435 429.749 L 630.455 429.762 L 630.412 446.438 Z M 642.27 453.836 C 637.608 453.825 634.596 451.659 633.137 448.824 L 637.233 446.536 C 638.302 448.245 639.706 449.513 642.174 449.519 C 644.249 449.524 645.588 448.518 645.591 447.114 C 645.596 445.443 644.238 444.847 641.939 443.855 L 640.688 443.33 C 637.066 441.824 634.674 439.927 634.685 435.946 C 634.694 432.279 637.575 429.501 642.047 429.512 C 645.243 429.52 647.53 430.605 649.169 433.44 L 645.251 435.868 C 644.396 434.368 643.467 433.774 642.024 433.771 C 640.558 433.767 639.625 434.67 639.622 435.854 C 639.618 437.316 640.547 437.91 642.703 438.832 L 643.954 439.358 C 648.218 441.144 650.611 442.971 650.6 447.056 C 650.589 451.443 647.029 453.848 642.27 453.836 Z"/>
  <path fill="ivory" d="M71.896 547.906C71.8954 548.121 71.6472 548.292 71.3348 548.292C70.9793 548.323 70.732 548.15 70.7327 547.903C70.7332 547.688 70.9814 547.517 71.2938 547.518C71.617 547.486 71.8966 547.659 71.896 547.906ZM68.5473 547.414C68.4714 547.629 68.6862 547.877 69.0091 547.942C69.2889 548.05 69.6123 547.943 69.6775 547.729C69.7427 547.514 69.5387 547.266 69.2158 547.168C68.9359 547.092 68.6233 547.199 68.5473 547.414ZM73.3087 547.243C72.9962 547.318 72.7802 547.521 72.8119 547.769C72.8436 547.984 73.1233 548.124 73.4467 548.05C73.7592 547.975 73.9752 547.771 73.9434 547.556C73.9116 547.352 73.6212 547.212 73.3087 547.243ZM80.5034 506.065C65.5636 506.028 54.1058 517.32 54.067 532.231C54.036 544.153 61.5278 554.374 72.2575 557.991C73.6356 558.242 74.1225 557.393 74.1243 556.695C74.126 556.028 74.1033 552.351 74.1092 550.094C74.1092 550.094 66.5651 551.688 64.9942 546.868C64.9942 546.868 63.7744 543.736 62.01 542.926C62.01 542.926 59.5478 541.232 62.1867 541.271C62.1867 541.271 64.8682 541.492 66.3372 544.054C68.6853 548.21 72.6415 547.026 74.1836 546.321C74.4358 544.601 75.1391 543.41 75.9165 542.702C69.897 542.021 63.8243 541.135 63.8512 530.793C63.8589 527.837 64.6813 526.355 66.4097 524.467C66.1314 523.768 65.2234 520.884 66.7087 517.168C68.9617 516.475 74.1334 520.089 74.1334 520.089C76.2892 519.493 78.6058 519.187 80.9001 519.192C83.1944 519.198 85.5094 519.515 87.6621 520.123C87.6621 520.123 92.8525 516.523 95.1019 517.238C96.5679 520.972 95.6448 523.841 95.363 524.539C97.0814 526.446 98.1332 527.932 98.1255 530.877C98.0985 541.252 91.752 542.064 85.7291 542.726C86.7179 543.578 87.5538 545.193 87.5473 547.719C87.5378 551.342 87.4939 555.825 87.4916 556.706C87.4898 557.405 87.983 558.255 89.3516 558.012C100.132 554.469 107.462 544.285 107.493 532.363C107.532 517.452 95.4432 506.102 80.5034 506.065ZM64.5085 543.104C64.3682 543.211 64.3999 543.458 64.5825 543.663C64.7544 543.836 65.0019 543.911 65.1423 543.772C65.2826 543.665 65.2509 543.418 65.0683 543.213C64.8964 543.04 64.6489 542.965 64.5085 543.104ZM63.3475 542.23C63.2717 542.37 63.379 542.542 63.5941 542.65C63.7662 542.758 63.9817 542.726 64.0575 542.576C64.1332 542.436 64.026 542.264 63.8108 542.156C63.5956 542.091 63.4232 542.123 63.3475 542.23ZM66.8274 546.066C66.6547 546.205 66.7185 546.528 66.9657 546.733C67.2128 546.981 67.5251 547.014 67.6656 546.842C67.806 546.703 67.7422 546.38 67.5273 546.175C67.291 545.927 66.9679 545.894 66.8274 546.066ZM65.6036 544.483C65.431 544.59 65.4303 544.869 65.602 545.117C65.7737 545.365 66.0642 545.473 66.2045 545.366C66.3772 545.226 66.3779 544.947 66.2062 544.699C66.0561 544.452 65.7763 544.343 65.6036 544.483Z"/>
  <path fill="#CC6C06" d="M325.04 660.104C330.831 660.502 332.069 660.366 332.066 661.507C332.06 663.828 324.243 663.816 324.249 661.664C324.251 661.073 324.644 660.574 325.04 660.104V660.104ZM328.408 646.576C324.557 646.567 324.37 651.727 328.305 651.737C332.182 651.746 332.1 646.585 328.408 646.576V646.576ZM366.546 630.702L366.44 671.551C366.436 673.028 365.83 674.444 364.753 675.486C363.677 676.528 362.22 677.111 360.702 677.107L318.724 677.004C317.206 677 315.752 676.41 314.681 675.362C313.61 674.315 313.011 672.897 313.014 671.419L313.121 630.57C313.125 629.093 313.731 627.678 314.808 626.636C315.884 625.594 317.341 625.01 318.859 625.014L360.837 625.118C362.355 625.121 363.809 625.712 364.88 626.759C365.951 627.806 366.55 629.225 366.546 630.702V630.702ZM339.455 638.679C339.451 640.36 340.447 641.336 342.174 641.34C343.932 641.345 344.935 640.374 344.939 638.692C344.944 637.011 343.948 636.101 342.19 636.096C340.463 636.092 339.459 636.999 339.455 638.679ZM336.839 643.974L330.93 643.96C327.951 643.192 321.205 643.373 321.19 649.361C321.184 651.543 322.301 653.077 323.784 653.79C321.908 655.453 321.02 656.237 321.017 657.351C321.015 658.148 321.346 658.886 322.345 659.299C321.282 660.271 320.672 660.975 320.668 662.303C320.664 664.632 322.751 665.989 328.236 666.003C333.509 666.016 336.573 664.107 336.582 660.716C336.593 656.461 333.226 656.609 325.292 656.118L326.296 654.562C328.321 655.117 335.141 655.307 335.156 649.66C335.159 648.304 334.586 647.359 334.043 646.678L336.831 646.479L336.839 643.974ZM346.864 656.746L345.314 656.536C344.859 656.475 344.829 656.418 344.83 655.944L344.862 643.706L338.589 643.691L338.25 646.077C340.127 646.726 340.276 646.646 340.275 647.262L340.252 655.936C340.25 656.588 340.214 656.467 338.223 656.728L338.217 659.056L346.853 659.077L346.864 656.746ZM358.843 657.955L358.031 655.357C353.145 657.128 353.521 653.905 353.522 653.404L353.54 646.357L358.054 646.369L358.062 643.42L353.79 643.409C353.448 643.408 353.551 643.701 353.563 638.926L350.68 638.919C350.339 642.132 349.275 643.427 346.613 643.715L346.606 646.34C349.047 646.346 348.97 646.248 348.969 646.641L348.949 654.366C348.94 657.699 350.299 659.117 353.905 659.126C355.629 659.13 357.538 658.575 358.843 657.955V657.955Z"/>
  <path fill="#00bfff" d="M 85.535 209.594 C 84.625 206.077 82.897 203.425 79.218 203.425 L 74.474 203.425 L 74.474 208.82 C 74.474 213.009 70.784 216.538 66.572 216.538 L 53.938 216.538 C 50.483 216.538 47.62 219.384 47.62 222.72 L 47.62 234.308 C 47.62 237.609 50.602 239.545 53.938 240.489 C 57.936 241.616 61.781 241.821 66.572 240.489 C 69.754 239.601 72.889 237.814 72.889 234.308 L 72.889 229.675 L 60.267 229.675 L 60.267 228.127 L 79.218 228.127 C 82.897 228.127 84.258 225.657 85.535 221.957 C 86.86 218.143 86.801 214.478 85.535 209.594 Z M 67.365 232.76 C 68.678 232.76 69.742 233.796 69.742 235.071 C 69.742 236.357 68.678 237.393 67.365 237.393 C 66.063 237.393 64.987 236.346 64.987 235.071 C 64.999 233.784 66.063 232.76 67.365 232.76 Z M 53.358 215.013 L 65.992 215.013 C 69.506 215.013 72.31 212.224 72.31 208.832 L 72.31 197.232 C 72.31 193.931 69.423 191.46 65.992 190.903 C 61.757 190.231 57.155 190.265 53.358 190.914 C 48.011 191.825 47.041 193.726 47.041 197.243 L 47.041 201.876 L 59.687 201.876 L 59.687 203.425 L 42.297 203.425 C 38.618 203.425 35.4 205.553 34.394 209.594 C 33.235 214.228 33.188 217.119 34.394 221.957 C 35.294 225.554 37.435 228.127 41.114 228.127 L 45.456 228.127 L 45.456 222.572 C 45.456 218.553 49.064 215.013 53.358 215.013 Z M 52.565 198.78 C 51.252 198.78 50.188 197.744 50.188 196.469 C 50.199 195.183 51.252 194.147 52.565 194.147 C 53.867 194.147 54.943 195.194 54.943 196.469 C 54.943 197.744 53.878 198.78 52.565 198.78 Z"/>
  <path fill="#61DBFB" d="M203.29 606.527C202.731 606.322 202.172 606.129 201.613 605.947C201.706 605.525 201.789 605.104 201.872 604.683C203.145 597.899 202.307 592.446 199.481 590.647C196.758 588.929 192.318 590.716 187.825 595.019C187.38 595.44 186.945 595.884 186.531 596.328C186.252 596.032 185.962 595.736 185.672 595.451C180.962 590.852 176.242 588.917 173.416 590.727C170.704 592.457 169.896 597.591 171.035 604.011C171.149 604.649 171.273 605.275 171.418 605.912C170.755 606.117 170.103 606.345 169.492 606.584C163.965 608.69 160 612.014 160 615.452C160 619.003 164.223 622.566 169.969 624.729C170.434 624.9 170.9 625.071 171.376 625.219C171.221 625.902 171.087 626.573 170.962 627.268C169.875 633.585 170.724 638.594 173.436 640.313C176.231 642.089 180.931 640.267 185.506 635.862C185.869 635.509 186.231 635.145 186.593 634.758C187.049 635.247 187.525 635.714 188.001 636.169C192.431 640.358 196.81 642.055 199.512 640.336C202.307 638.56 203.218 633.176 202.038 626.619C201.945 626.118 201.841 625.606 201.727 625.082C202.058 624.98 202.379 624.866 202.7 624.752C208.673 622.578 213 619.06 213 615.452C213 612.003 208.921 608.656 203.29 606.527V606.527ZM189.285 596.863C193.135 593.175 196.727 591.729 198.363 592.765C200.112 593.869 200.785 598.331 199.688 604.194C199.615 604.581 199.543 604.956 199.45 605.332C197.152 604.763 194.823 604.353 192.483 604.125C191.137 602.008 189.668 599.982 188.073 598.081C188.477 597.66 188.871 597.261 189.285 596.863V596.863ZM177.308 621.36C177.836 622.35 178.374 623.34 178.943 624.308C177.329 624.114 175.724 623.83 174.14 623.454C174.596 621.815 175.165 620.119 175.828 618.389C176.304 619.39 176.79 620.381 177.308 621.36V621.36ZM174.171 607.665C175.662 607.301 177.246 607.005 178.892 606.778C178.343 607.722 177.805 608.69 177.297 609.669C176.79 610.637 176.293 611.627 175.828 612.629C175.175 610.933 174.627 609.271 174.171 607.665ZM177.008 615.509C177.691 613.938 178.436 612.401 179.223 610.887C180.01 609.373 180.858 607.905 181.749 606.459C183.301 606.334 184.885 606.265 186.5 606.265C188.115 606.265 189.709 606.334 191.251 606.459C192.131 607.893 192.97 609.362 193.767 610.864C194.564 612.367 195.309 613.904 196.013 615.463C195.32 617.034 194.574 618.582 193.777 620.107C192.99 621.621 192.152 623.09 191.272 624.547C189.73 624.672 188.125 624.729 186.5 624.729C184.875 624.729 183.301 624.672 181.78 624.57C180.879 623.124 180.03 621.644 179.233 620.13C178.436 618.616 177.701 617.079 177.008 615.509ZM195.703 621.337C196.23 620.335 196.727 619.322 197.214 618.298C197.876 619.948 198.456 621.621 198.963 623.34C197.359 623.739 195.734 624.046 194.098 624.251C194.657 623.295 195.185 622.316 195.703 621.337ZM197.193 612.629C196.707 611.627 196.21 610.625 195.692 609.646C195.185 608.679 194.657 607.722 194.108 606.778C195.775 607.005 197.369 607.313 198.86 607.688C198.384 609.373 197.825 611.012 197.193 612.629V612.629ZM186.521 599.822C187.608 601.12 188.632 602.486 189.585 603.898C187.535 603.795 185.475 603.795 183.426 603.898C184.44 602.429 185.486 601.063 186.521 599.822ZM174.513 592.844C176.252 591.729 180.113 593.323 184.181 597.284C184.44 597.534 184.699 597.808 184.968 598.081C183.363 599.982 181.883 602.008 180.527 604.125C178.188 604.353 175.869 604.751 173.571 605.309C173.436 604.729 173.322 604.137 173.209 603.545C172.236 598.035 172.877 593.88 174.513 592.844V592.844ZM171.977 622.851C171.542 622.714 171.118 622.566 170.693 622.407C168.488 621.644 165.983 620.438 164.172 618.855C163.126 618.058 162.422 616.829 162.226 615.452C162.226 613.369 165.497 610.705 170.217 608.895C170.807 608.667 171.407 608.462 172.008 608.269C172.712 610.739 173.561 613.164 174.544 615.509C173.55 617.888 172.691 620.347 171.977 622.851V622.851ZM184.047 634.006C182.339 635.725 180.362 637.091 178.208 638.025C177.059 638.628 175.734 638.685 174.554 638.173C172.908 637.126 172.225 633.107 173.157 627.7C173.271 627.063 173.395 626.425 173.54 625.799C175.859 626.346 178.198 626.721 180.569 626.915C181.935 629.043 183.436 631.081 185.04 632.993C184.709 633.346 184.378 633.688 184.047 634.006ZM186.583 631.24C185.527 629.988 184.471 628.599 183.446 627.108C184.44 627.154 185.465 627.177 186.5 627.177C187.566 627.177 188.612 627.154 189.647 627.097C188.695 628.542 187.67 629.92 186.583 631.24V631.24ZM200.112 634.655C200.019 636.044 199.398 637.342 198.404 638.218C196.758 639.266 193.249 637.9 189.461 634.325C189.026 633.915 188.591 633.471 188.146 633.016C189.73 631.092 191.189 629.055 192.514 626.915C194.885 626.698 197.245 626.3 199.574 625.719C199.678 626.186 199.771 626.653 199.854 627.108C200.361 629.567 200.444 632.128 200.112 634.655V634.655ZM201.996 622.418C201.706 622.521 201.417 622.623 201.116 622.714C200.392 620.233 199.502 617.808 198.477 615.452C199.471 613.129 200.309 610.739 201.013 608.292C201.551 608.462 202.069 608.644 202.566 608.827C207.389 610.648 210.774 613.357 210.774 615.429C210.774 617.66 207.162 620.54 201.996 622.418ZM186.5 620.711C189.119 620.711 191.241 618.377 191.241 615.497C191.241 612.617 189.119 610.284 186.5 610.284C183.881 610.284 181.759 612.617 181.759 615.497C181.759 618.377 183.881 620.711 186.5 620.711Z"/>
  <path fill="#68A063" d="M542.488 641C541.693 641 540.887 640.818 540.187 640.474L532.868 636.78C531.777 636.254 532.31 636.072 532.666 635.97C534.125 635.535 534.422 635.444 535.976 634.685C536.142 634.604 536.355 634.634 536.521 634.726L542.144 637.569C542.346 637.671 542.63 637.671 542.82 637.569L564.73 626.781C564.931 626.68 565.062 626.478 565.062 626.275V604.699C565.062 604.487 564.931 604.295 564.718 604.183L542.82 593.405C542.619 593.304 542.346 593.304 542.144 593.405L520.259 604.193C520.045 604.295 519.915 604.497 519.915 604.709V626.275C519.915 626.478 520.045 626.68 520.259 626.771L526.261 629.726C529.523 631.113 531.516 629.483 531.516 627.834V606.541C531.516 606.238 531.8 606.005 532.156 606.005H534.932C535.276 606.005 535.573 606.238 535.573 606.541V627.844C535.573 631.548 533.2 633.673 529.084 633.673C527.815 633.673 526.818 633.673 524.043 632.499L518.301 629.676C516.878 628.977 516 627.672 516 626.265V604.699C516 603.303 516.878 601.987 518.301 601.289L540.187 590.501C541.575 589.833 543.413 589.833 544.789 590.501L566.699 601.299C568.122 601.997 569 603.303 569 604.709V626.275C569 627.672 568.122 628.977 566.699 629.686L544.789 640.474C544.09 640.818 543.295 641 542.488 641ZM560.175 619.738C560.175 615.7 556.972 614.627 550.246 613.868C543.437 613.099 542.749 612.704 542.749 611.348C542.749 610.225 543.33 608.727 548.372 608.727C552.868 608.727 554.528 609.557 555.216 612.148C555.276 612.391 555.536 612.573 555.833 612.573H558.68C558.858 612.573 559.024 612.512 559.143 612.401C559.261 612.289 559.321 612.138 559.309 611.986C558.87 607.523 555.394 605.448 548.372 605.448C542.12 605.448 538.396 607.695 538.396 611.47C538.396 615.558 542.109 616.692 548.099 617.198C555.276 617.795 555.833 618.695 555.833 619.9C555.833 621.984 553.864 622.875 549.25 622.875C543.449 622.875 542.18 621.63 541.753 619.171C541.705 618.908 541.444 618.716 541.124 618.716H538.289C537.933 618.716 537.66 618.959 537.66 619.252C537.66 622.399 539.665 626.154 549.261 626.154C556.189 626.144 560.175 623.806 560.175 619.738V619.738Z"/>
  <path fill="#CC3534" d="M 62.416 387.255 L 59.083 387.255 L 59.083 378.146 L 62.416 378.146 L 62.416 387.255 Z M 92.416 369.039 L 92.416 396.362 L 62.416 396.362 L 62.416 400.916 L 49.083 400.916 L 49.083 396.362 L 32.416 396.362 L 32.416 369.039 L 92.416 369.039 Z M 49.083 373.593 L 35.749 373.593 L 35.749 391.809 L 42.416 391.809 L 42.416 378.146 L 45.749 378.146 L 45.749 391.809 L 49.083 391.809 L 49.083 373.593 Z M 65.749 373.593 L 52.416 373.593 L 52.416 396.362 L 59.083 396.362 L 59.083 391.809 L 65.749 391.809 L 65.749 373.593 Z M 89.083 373.593 L 69.083 373.593 L 69.083 391.809 L 75.749 391.809 L 75.749 378.146 L 79.083 378.146 L 79.083 391.809 L 82.416 391.809 L 82.416 378.146 L 85.749 378.146 L 85.749 391.809 L 89.083 391.809 L 89.083 373.593 Z" style=""/>
  <path style="fill: rgb(83, 130, 161);" d="M 363.33 409.046 L 362.996 409.046 L 362.996 408.912 L 363.893 408.912 L 363.893 409.046 L 363.563 409.046 L 363.563 409.718 L 363.33 409.718 L 363.33 409.046 Z M 365.117 409.081 L 365.111 409.081 L 364.781 409.718 L 364.631 409.718 L 364.303 409.081 L 364.299 409.081 L 364.299 409.718 L 364.079 409.718 L 364.079 408.912 L 364.402 408.912 L 364.706 409.483 L 365.009 408.912 L 365.33 408.912 L 365.33 409.718 L 365.117 409.718 L 365.117 409.081 Z"/>
  <path style="fill: rgb(83, 130, 161);" d="M 333.536 392.559 C 333.536 392.559 331.221 393.533 335.184 393.862 C 339.986 394.258 342.44 394.201 347.73 393.477 C 347.73 393.477 349.121 394.107 351.064 394.654 C 339.204 398.33 324.22 394.441 333.536 392.559"/>
  <path style="fill: rgb(83, 130, 161);" d="M 332.086 387.762 C 332.086 387.762 329.489 389.151 333.456 389.449 C 338.586 389.831 342.637 389.863 349.646 388.887 C 349.646 388.887 350.615 389.597 352.138 389.985 C 337.798 393.018 321.822 390.225 332.086 387.762"/>
  <path style="fill: rgb(248, 152, 29);" d="M 344.306 379.626 C 347.228 382.059 343.538 384.247 343.538 384.247 C 343.538 384.247 350.96 381.477 347.551 378.009 C 344.369 374.774 341.927 373.167 355.142 367.626 C 355.142 367.626 334.398 371.371 344.306 379.626"/>
  <path style="fill: rgb(83, 130, 161);" d="M 359.994 396.107 C 359.994 396.107 361.708 397.128 358.108 397.918 C 351.26 399.417 329.61 399.869 323.595 397.977 C 321.434 397.297 325.488 396.353 326.764 396.155 C 328.093 395.947 328.853 395.986 328.853 395.986 C 326.449 394.761 313.312 398.39 322.18 399.429 C 346.366 402.266 366.268 398.153 359.994 396.107"/>
  <path style="fill: rgb(83, 130, 161);" d="M 334.649 382.793 C 334.649 382.793 323.637 384.684 330.75 385.369 C 333.753 385.661 339.741 385.595 345.316 385.258 C 349.875 384.98 354.451 384.388 354.451 384.388 C 354.451 384.388 352.844 384.886 351.68 385.46 C 340.498 387.587 318.893 386.597 325.112 384.422 C 330.373 382.583 334.649 382.793 334.649 382.793"/>
  <path style="fill: rgb(83, 130, 161);" d="M 354.406 390.777 C 365.773 386.505 360.518 382.4 356.849 382.953 C 355.949 383.089 355.549 383.207 355.549 383.207 C 355.549 383.207 355.883 382.828 356.521 382.664 C 363.777 380.819 369.36 388.106 354.176 390.991 C 354.176 390.991 354.352 390.878 354.406 390.777"/>
  <path style="fill: rgb(248, 152, 29);" d="M 347.551 358.677 C 347.551 358.677 353.846 363.231 341.579 370.233 C 331.742 375.85 339.337 379.053 341.575 382.713 C 335.833 378.966 331.619 375.668 334.447 372.599 C 338.597 368.094 350.091 365.91 347.551 358.677"/>
  <path style="fill: rgb(83, 130, 161);" d="M 335.767 402.351 C 346.678 402.855 363.436 402.071 363.832 398.338 C 363.832 398.338 363.07 399.753 354.814 400.876 C 345.501 402.144 334.013 401.996 327.2 401.183 C 327.2 401.183 328.595 402.018 335.767 402.351"/>
  <path style="fill: rgb(83, 130, 161);" d="M 333.978 416.616 C 332.95 417.261 331.861 417.623 330.886 417.623 C 329.493 417.623 328.741 417.019 328.741 416.051 C 328.741 415.004 329.548 414.239 332.781 414.239 L 333.978 414.239 L 333.978 416.616 M 336.819 418.933 L 336.819 411.76 C 336.819 409.928 335.373 408.718 331.889 408.718 C 329.854 408.718 328.072 409.082 326.623 409.544 L 327.041 410.815 C 328.182 410.513 329.658 410.23 331.108 410.23 C 333.115 410.23 333.978 410.815 333.978 412.023 L 333.978 412.929 L 332.975 412.929 C 328.098 412.929 325.899 414.299 325.899 416.353 C 325.899 418.126 327.348 419.135 330.078 419.135 C 331.834 419.135 333.144 418.611 334.368 417.844 L 334.59 418.933 L 336.819 418.933 Z"/>
  <path style="fill: rgb(83, 130, 161);" d="M 346.299 418.933 L 342.756 418.933 L 338.492 408.901 L 341.586 408.901 L 344.231 415.065 L 344.82 416.918 C 346.158 414.237 347.105 411.518 347.578 408.901 L 350.588 408.901 C 349.781 412.204 348.33 415.831 346.299 418.933"/>
  <path style="fill: rgb(83, 130, 161);" d="M 359.89 416.616 C 358.858 417.261 357.769 417.623 356.792 417.623 C 355.403 417.623 354.647 417.019 354.647 416.051 C 354.647 415.004 355.456 414.239 358.691 414.239 L 359.89 414.239 L 359.89 416.616 M 362.729 418.933 L 362.729 411.76 C 362.729 409.928 361.281 408.718 357.8 408.718 C 355.764 408.718 353.98 409.082 352.532 409.544 L 352.95 410.815 C 354.09 410.513 355.569 410.23 357.017 410.23 C 359.024 410.23 359.89 410.815 359.89 412.023 L 359.89 412.929 L 358.885 412.929 C 354.006 412.929 351.806 414.299 351.806 416.353 C 351.806 418.126 353.256 419.135 355.985 419.135 C 357.741 419.135 359.05 418.611 360.278 417.844 L 360.5 418.933 L 362.729 418.933 Z"/>
  <path style="fill: rgb(83, 130, 161);" d="M 322.785 420.637 C 321.974 421.491 320.666 422.168 319.234 422.55 L 317.832 421.357 C 318.923 420.952 319.857 420.3 320.29 419.691 C 320.666 419.15 320.822 418.453 320.822 416.787 L 320.822 405.332 L 323.84 405.332 L 323.84 416.63 C 323.84 418.859 323.593 419.759 322.785 420.637"/>
  <g fill-rule="evenodd" transform="matrix(0.313797, 0, 0, 0.315383, 300.834355, 229.016574)" style="">
    <mask id="b" fill="#fff">
      <path d="m0.06 0.5h272v190h-272z" transform="matrix(1, 0, 0, 1, 0, 0)"/>
    </mask>
    <path d="m113 21.3c8.78-9.14 21-14.8 34.5-14.8 18 0 33.6 10 42 24.9a58 58 0 0 1 23.7-5.05c32.4 0 58.7 26.5 58.7 59.2s-26.3 59.2-58.7 59.2c-3.96 0-7.82-0.398-11.6-1.15-7.35 13.1-21.4 22-37.4 22a42.7 42.7 0 0 1-18.8-4.32c-7.45 17.5-24.8 29.8-45 29.8-21.1 0-39-13.3-45.9-32a45.1 45.1 0 0 1-9.34 0.972c-25.1 0-45.4-20.6-45.4-45.9 0-17 9.14-31.8 22.7-39.8a52.6 52.6 0 0 1-4.35-21c0-29.2 23.7-52.8 52.9-52.8 17.1 0 32.4 8.15 42 20.8" fill="#00A1E0" mask="url(#b)"/>
    <path d="m39.4 99.3c-0.171 0.446 0.061 0.539 0.116 0.618 0.511 0.37 1.03 0.638 1.55 0.939 2.78 1.47 5.4 1.9 8.14 1.9 5.58 0 9.05-2.97 9.05-7.75v-0.094c0-4.42-3.92-6.03-7.58-7.18l-0.479-0.155c-2.77-0.898-5.16-1.68-5.16-3.5v-0.093c0-1.56 1.4-2.71 3.56-2.71 2.4 0 5.26 0.799 7.09 1.81 0 0 0.542 0.35 0.739-0.173 0.107-0.283 1.04-2.78 1.14-3.06 0.106-0.293-0.08-0.514-0.271-0.628-2.1-1.28-5-2.15-8-2.15l-0.557 2e-3c-5.11 0-8.68 3.09-8.68 7.51v0.095c0 4.66 3.94 6.18 7.62 7.23l0.592 0.184c2.68 0.824 5 1.54 5 3.42v0.094c0 1.73-1.51 3.02-3.93 3.02-0.941 0-3.94-0.016-7.19-2.07-0.393-0.229-0.617-0.394-0.92-0.579-0.16-0.097-0.56-0.272-0.734 0.252l-1.1 3.06m81.7 0c-0.171 0.446 0.061 0.539 0.118 0.618 0.509 0.37 1.03 0.638 1.55 0.939 2.78 1.47 5.4 1.9 8.14 1.9 5.58 0 9.05-2.97 9.05-7.75v-0.094c0-4.42-3.91-6.03-7.58-7.18l-0.479-0.155c-2.77-0.898-5.16-1.68-5.16-3.5v-0.093c0-1.56 1.4-2.71 3.56-2.71 2.4 0 5.25 0.799 7.09 1.81 0 0 0.542 0.35 0.74-0.173 0.106-0.283 1.04-2.78 1.13-3.06 0.107-0.293-0.08-0.514-0.27-0.628-2.1-1.28-5-2.15-8-2.15l-0.558 2e-3c-5.11 0-8.68 3.09-8.68 7.51v0.095c0 4.66 3.94 6.18 7.62 7.23l0.591 0.184c2.69 0.824 5 1.54 5 3.42v0.094c0 1.73-1.51 3.02-3.93 3.02-0.943 0-3.95-0.016-7.19-2.07-0.393-0.229-0.623-0.387-0.921-0.579-0.101-0.064-0.572-0.248-0.733 0.252l-1.1 3.06m55.8-9.36c0 2.7-0.504 4.83-1.49 6.34-0.984 1.49-2.47 2.22-4.54 2.22s-3.55-0.724-4.52-2.21c-0.977-1.5-1.47-3.64-1.47-6.34 0-2.7 0.496-4.82 1.47-6.31 0.968-1.48 2.44-2.19 4.52-2.19s3.56 0.717 4.54 2.19c0.992 1.49 1.49 3.61 1.49 6.31m4.66-5.01c-0.459-1.55-1.17-2.91-2.12-4.05-0.951-1.14-2.15-2.06-3.58-2.72-1.42-0.665-3.1-1-5-1s-3.57 0.337-5 1c-1.42 0.664-2.63 1.58-3.58 2.72-0.948 1.14-1.66 2.5-2.12 4.05-0.455 1.54-0.686 3.22-0.686 5.01 0 1.79 0.231 3.47 0.686 5.01 0.457 1.55 1.17 2.91 2.12 4.05 0.951 1.14 2.16 2.05 3.58 2.7 1.43 0.648 3.11 0.978 5 0.978 1.89 0 3.57-0.33 4.99-0.978 1.42-0.648 2.63-1.56 3.58-2.7 0.949-1.14 1.66-2.5 2.12-4.05 0.454-1.54 0.685-3.22 0.685-5.01 0-1.78-0.231-3.47-0.685-5.01m38.3 12.8c-0.153-0.453-0.595-0.282-0.595-0.282-0.677 0.259-1.4 0.499-2.17 0.619-0.776 0.122-1.64 0.183-2.55 0.183-2.25 0-4.05-0.671-5.33-2-1.29-1.33-2.01-3.47-2-6.37 7e-3 -2.64 0.645-4.62 1.79-6.14 1.13-1.5 2.87-2.28 5.17-2.28 1.92 0 3.39 0.223 4.93 0.705 0 0 0.365 0.159 0.54-0.322 0.409-1.13 0.711-1.94 1.15-3.18 0.124-0.355-0.18-0.505-0.291-0.548-0.604-0.236-2.03-0.623-3.11-0.786-1.01-0.154-2.18-0.234-3.5-0.234-1.96 0-3.7 0.335-5.19 0.999-1.49 0.663-2.75 1.58-3.75 2.72-1 1.14-1.76 2.5-2.27 4.05-0.505 1.54-0.76 3.23-0.76 5.02 0 3.86 1.04 6.99 3.1 9.28 2.06 2.3 5.16 3.46 9.2 3.46 2.39 0 4.84-0.483 6.6-1.18 0 0 0.336-0.162 0.19-0.554l-1.15-3.16m8.15-10.4c0.223-1.5 0.634-2.75 1.28-3.72 0.967-1.48 2.44-2.29 4.51-2.29 2.07 0 3.44 0.814 4.42 2.29 0.65 0.975 0.934 2.27 1.04 3.72l-11.3-2e-3zm15.7-3.3c-0.397-1.49-1.38-3-2.02-3.69-1.02-1.09-2.01-1.86-3-2.28a11.5 11.5 0 0 0-4.52-0.917c-1.97 0-3.76 0.333-5.21 1.01-1.45 0.682-2.67 1.61-3.63 2.77-0.959 1.16-1.68 2.53-2.14 4.1-0.46 1.55-0.692 3.25-0.692 5.03 0 1.82 0.241 3.51 0.715 5.04 0.479 1.54 1.25 2.89 2.29 4.01 1.04 1.13 2.37 2.01 3.97 2.63 1.59 0.615 3.52 0.934 5.73 0.927 4.56-0.015 6.96-1.03 7.94-1.58 0.175-0.098 0.34-0.267 0.134-0.754l-1.03-2.89c-0.158-0.431-0.594-0.275-0.594-0.275-1.13 0.422-2.73 1.18-6.48 1.17-2.45-4e-3 -4.26-0.727-5.4-1.86-1.16-1.16-1.74-2.85-1.83-5.25l15.8 0.012s0.416-4e-3 0.459-0.41c0.017-0.168 0.541-3.24-0.471-6.79zm-142 3.3c0.223-1.5 0.635-2.75 1.28-3.72 0.968-1.48 2.44-2.29 4.51-2.29 2.07 0 3.44 0.814 4.42 2.29 0.649 0.975 0.933 2.27 1.04 3.72l-11.3-2e-3zm15.7-3.3c-0.396-1.49-1.38-3-2.02-3.69-1.02-1.09-2.01-1.86-3-2.28a11.5 11.5 0 0 0-4.52-0.917c-1.97 0-3.76 0.333-5.21 1.01-1.45 0.682-2.67 1.61-3.63 2.77-0.957 1.16-1.68 2.53-2.14 4.1-0.459 1.55-0.69 3.25-0.69 5.03 0 1.82 0.239 3.51 0.716 5.04 0.478 1.54 1.25 2.89 2.28 4.01 1.04 1.13 2.37 2.01 3.97 2.63 1.59 0.615 3.51 0.934 5.73 0.927 4.56-0.015 6.96-1.03 7.94-1.58 0.174-0.098 0.34-0.267 0.133-0.754l-1.03-2.89c-0.159-0.431-0.595-0.275-0.595-0.275-1.13 0.422-2.73 1.18-6.48 1.17-2.44-4e-3 -4.26-0.727-5.4-1.86-1.16-1.16-1.74-2.85-1.83-5.25l15.8 0.012s0.416-4e-3 0.459-0.41c0.017-0.168 0.541-3.24-0.472-6.79zm-49.8 13.6c-0.619-0.494-0.705-0.615-0.91-0.936-0.313-0.483-0.473-1.17-0.473-2.05 0-1.38 0.46-2.38 1.41-3.05-0.01 2e-3 1.36-1.18 4.58-1.14a32 32 0 0 1 4.28 0.365v7.17h2e-3s-2 0.431-4.26 0.567c-3.21 0.193-4.63-0.924-4.62-0.921zm6.28-11.1c-0.64-0.047-1.47-0.07-2.46-0.07-1.35 0-2.66 0.168-3.88 0.498-1.23 0.332-2.34 0.846-3.29 1.53a7.63 7.63 0 0 0-2.29 2.6c-0.559 1.04-0.844 2.26-0.844 3.64 0 1.4 0.243 2.61 0.723 3.6a6.54 6.54 0 0 0 2.06 2.47c0.877 0.638 1.96 1.11 3.21 1.39 1.24 0.283 2.64 0.426 4.18 0.426 1.62 0 3.23-0.136 4.79-0.399a95.1 95.1 0 0 0 3.97-0.772c0.526-0.121 1.11-0.28 1.11-0.28 0.39-0.099 0.36-0.516 0.36-0.516l-9e-3 -14.4c0-3.16-0.844-5.51-2.51-6.96-1.66-1.45-4.09-2.18-7.24-2.18-1.18 0-3.09 0.16-4.23 0.389 0 0-3.44 0.668-4.86 1.78 0 0-0.312 0.192-0.142 0.627l1.12 3c0.139 0.389 0.518 0.256 0.518 0.256s0.119-0.047 0.259-0.13c3.03-1.65 6.87-1.6 6.87-1.6 1.7 0 3.02 0.345 3.9 1.02 0.861 0.661 1.3 1.66 1.3 3.76v0.667c-1.35-0.196-2.6-0.309-2.6-0.309zm127-8.13a0.428 0.428 0 0 0-0.237-0.568c-0.269-0.102-1.61-0.385-2.64-0.449-1.98-0.124-3.08 0.21-4.07 0.654-0.978 0.441-2.06 1.15-2.66 1.97l-2e-3 -1.92c0-0.264-0.187-0.477-0.453-0.477h-4.04c-0.262 0-0.452 0.213-0.452 0.477v23.5a0.48 0.48 0 0 0 0.479 0.479h4.14a0.479 0.479 0 0 0 0.478-0.479v-11.8c0-1.58 0.174-3.15 0.521-4.14 0.342-0.979 0.807-1.76 1.38-2.32a4.79 4.79 0 0 1 1.95-1.17 7.68 7.68 0 0 1 2.12-0.298c0.825 0 1.73 0.212 1.73 0.212 0.304 0.034 0.473-0.152 0.576-0.426 0.271-0.721 1.04-2.88 1.19-3.31" fill="#FFFFFE"/>
    <path d="M162.201 67.548a13.258 13.258 0 0 0-1.559-.37 12.217 12.217 0 0 0-2.144-.166c-2.853 0-5.102.806-6.681 2.398-1.568 1.58-2.635 3.987-3.17 7.154l-.193 1.069h-3.581s-.437-.018-.529.459l-.588 3.28c-.041.314.094.51.514.508h3.486l-3.537 19.743c-.277 1.59-.594 2.898-.945 3.889-.346.978-.684 1.711-1.1 2.243-.403.515-.785.894-1.444 1.115-.544.183-1.17.267-1.856.267-.382 0-.89-.064-1.265-.139-.375-.074-.57-.158-.851-.276 0 0-.409-.156-.57.254-.131.335-1.06 2.89-1.17 3.206-.112.312.045.558.243.629.464.166.809.272 1.441.421.878.207 1.618.22 2.311.22 1.452 0 2.775-.204 3.872-.6 1.104-.399 2.065-1.094 2.915-2.035.919-1.015 1.497-2.078 2.05-3.528.547-1.437 1.013-3.221 1.386-5.3l3.554-20.109h5.196s.438.016.529-.459l.588-3.28c.041-.314-.093-.51-.515-.508h-5.043c.025-.114.254-1.888.833-3.558.247-.713.712-1.288 1.106-1.683a3.273 3.273 0 0 1 1.321-.822 5.48 5.48 0 0 1 1.693-.244c.475 0 .941.057 1.296.131.489.104.679.159.807.197.514.157.583.005.684-.244l1.206-3.312c.124-.356-.178-.506-.29-.55m-70.474 34.117c0 .264-.188.479-.452.479h-4.183c-.265 0-.453-.215-.453-.479V67.997c0-.263.188-.476.453-.476h4.183c.264 0 .452.213.452.476v33.668" fill="#FFFFFE"/>
  </g>
  <rect width="55.933" height="57.81" rx="50" fill="#3178c6" style="" x="604.989" y="172.618"/>
  <path d="M 639.62 218.573 L 639.62 224.218 C 640.504 224.693 641.586 225.043 642.787 225.28 C 643.989 225.517 645.3 225.63 646.611 225.63 C 647.922 225.63 649.124 225.506 650.325 225.246 C 651.527 224.986 652.511 224.557 653.384 224.004 C 654.269 223.405 655.023 222.649 655.46 221.633 C 655.897 220.616 656.236 219.488 656.236 218.02 C 656.236 216.992 656.083 216.1 655.788 215.309 C 655.493 214.519 655.067 213.842 654.477 213.277 C 653.92 212.679 653.275 212.148 652.511 211.697 C 651.746 211.245 650.872 210.771 649.889 210.342 C 649.168 210.037 648.577 209.743 647.922 209.449 C 647.354 209.156 646.863 208.862 646.502 208.569 C 646.098 208.264 645.792 207.948 645.573 207.621 C 645.355 207.282 645.246 206.909 645.246 206.491 C 645.246 206.108 645.343 205.758 645.54 205.441 C 645.738 205.125 646.01 204.865 646.36 204.64 C 646.71 204.414 647.147 204.244 647.671 204.12 C 648.184 203.996 648.752 203.939 649.419 203.939 C 649.878 203.939 650.359 203.974 650.839 204.046 C 651.341 204.117 651.855 204.226 652.368 204.373 C 652.882 204.52 653.384 204.701 653.898 204.927 C 654.378 205.152 654.826 205.412 655.209 205.705 L 655.209 200.399 C 654.378 200.071 653.461 199.823 652.478 199.665 C 651.495 199.507 650.402 199.427 649.091 199.427 C 647.78 199.427 646.578 199.575 645.377 199.857 C 644.175 200.139 643.192 200.59 642.318 201.212 C 641.433 201.821 640.788 202.566 640.242 203.583 C 639.729 204.531 639.477 205.615 639.477 206.97 C 639.477 208.663 639.947 210.131 640.898 211.261 C 641.837 212.502 643.301 213.406 645.158 214.309 C 645.912 214.626 646.578 214.941 647.234 215.246 C 647.89 215.551 648.436 215.867 648.873 216.195 C 649.342 216.522 649.714 216.884 649.965 217.267 C 650.238 217.652 650.38 218.103 650.38 218.622 C 650.38 218.984 650.295 219.323 650.129 219.639 C 649.963 219.955 649.703 220.226 649.354 220.452 C 649.004 220.678 648.577 220.858 648.042 220.993 C 647.529 221.118 646.95 221.186 646.185 221.186 C 644.983 221.186 643.782 220.971 642.689 220.542 C 641.488 220.113 640.395 219.47 639.412 218.622 L 639.62 218.573 Z M 630.443 204.685 L 637.435 204.685 L 637.435 200.055 L 617.88 200.055 L 617.88 204.685 L 624.871 204.685 L 624.871 225.348 L 630.443 225.348 L 630.443 204.685 Z" clip-rule="evenodd" fill="#fff" fill-rule="evenodd" style="fill: rgb(255, 255, 255);"/>
  <g id="Layer_1" transform="matrix(0.204091, 0, 0, 0.257074, 608.819345, 274.454106)" style=""/>
  <g id="Layer_2" transform="matrix(0.204091, 0, 0, 0.257074, 83.310693, 72.696313)" style="">
    <g>
      <path fill="#00749A" d="M313.19,48.227h-21.257v2.255c6.649,0,7.718,1.425,7.718,9.857V75.54c0,8.431-1.068,9.975-7.718,9.975 c-5.105-0.712-8.55-3.444-13.3-8.669l-5.462-5.937c7.362-1.308,11.28-5.938,11.28-11.164c0-6.53-5.58-11.518-16.031-11.518h-20.9 v2.255c6.649,0,7.718,1.425,7.718,9.857V75.54c0,8.431-1.069,9.975-7.718,9.975v2.256h23.631v-2.256 c-6.649,0-7.718-1.544-7.718-9.975v-4.274h2.018l13.182,16.505h34.557c16.981,0,24.344-9.024,24.344-19.832 C337.534,57.133,330.172,48.227,313.19,48.227z M263.434,67.582V51.79h4.868c5.343,0,7.719,3.681,7.719,7.956 c0,4.157-2.376,7.837-7.719,7.837H263.434z M313.547,84.09h-0.832c-4.274,0-4.868-1.068-4.868-6.531V51.79c0,0,5.225,0,5.7,0 c12.35,0,14.605,9.024,14.605,16.031C328.152,75.064,325.896,84.09,313.547,84.09z"/>
      <path fill="#00749A" d="M181.378,71.978l8.194-24.227c2.376-7.006,1.307-9.024-6.293-9.024v-2.376h22.325v2.376 c-7.481,0-9.262,1.781-12.231,10.45L179.834,89.79h-1.543l-12.114-37.17l-12.349,37.17h-1.544l-13.181-40.613 c-2.85-8.669-4.75-10.45-11.638-10.45v-2.376h26.363v2.376c-7.007,0-8.908,1.662-6.413,9.024l7.956,24.227l11.994-35.627h2.257 L181.378,71.978z"/>
      <path fill="#00749A" d="M221.752,89.314c-13.062,0-23.75-9.618-23.75-21.376c0-11.637,10.689-21.257,23.75-21.257 c13.063,0,23.75,9.62,23.75,21.257C245.502,79.696,234.815,89.314,221.752,89.314z M221.752,50.365 c-10.924,0-14.725,9.855-14.725,17.574c0,7.839,3.801,17.576,14.725,17.576c11.045,0,14.845-9.737,14.845-17.576 C236.597,60.22,232.797,50.365,221.752,50.365z"/>
      <path fill="#464342" d="M366.864,85.396v2.375H339.67v-2.375c7.957,0,9.382-2.018,9.382-13.895V52.502 c0-11.877-1.425-13.776-9.382-13.776v-2.376h24.581c12.231,0,19.002,6.294,19.002,14.727c0,8.194-6.771,14.606-19.002,14.606 h-6.769v5.817C357.482,83.378,358.907,85.396,366.864,85.396z M364.251,40.625h-6.769v20.664h6.769 c6.651,0,9.738-4.631,9.738-10.212C373.989,45.377,370.902,40.625,364.251,40.625z"/>
      <path fill="#464342" d="M464.833,76.609l-0.594,2.137c-1.068,3.919-2.376,5.344-10.807,5.344h-1.663 c-6.174,0-7.243-1.425-7.243-9.856v-5.462c9.263,0,9.976,0.83,9.976,7.006h2.256V58.083h-2.256c0,6.175-0.713,7.006-9.976,7.006 V51.79h6.53c8.433,0,9.738,1.425,10.807,5.344l0.595,2.255h1.899l-0.83-11.162h-34.914v2.255c6.649,0,7.719,1.425,7.719,9.857 V75.54c0,7.713-0.908,9.656-6.151,9.933c-4.983-0.761-8.404-3.479-13.085-8.627l-5.463-5.937 c7.363-1.308,11.282-5.938,11.282-11.164c0-6.53-5.581-11.518-16.031-11.518h-20.9v2.255c6.649,0,7.718,1.425,7.718,9.857V75.54 c0,8.431-1.068,9.975-7.718,9.975v2.256h23.632v-2.256c-6.649,0-7.719-1.544-7.719-9.975v-4.274h2.019l13.181,16.505h48.806 l0.713-11.161H464.833z M401.896,67.582V51.79h4.868c5.344,0,7.72,3.681,7.72,7.956c0,4.157-2.376,7.837-7.72,7.837H401.896z"/>
      <path fill="#464342" d="M488.939,89.314c-4.75,0-8.907-2.493-10.688-4.038c-0.594,0.595-1.662,2.376-1.899,4.038h-2.257V72.928 h2.375c0.951,7.837,6.412,12.468,13.419,12.468c3.8,0,6.888-2.137,6.888-5.699c0-3.087-2.731-5.463-7.6-7.719l-6.769-3.206 c-4.751-2.258-8.313-6.177-8.313-11.401c0-5.7,5.344-10.568,12.707-10.568c3.919,0,7.243,1.425,9.263,3.087 c0.593-0.475,1.187-1.782,1.544-3.208h2.256v14.014h-2.494c-0.832-5.582-3.919-10.213-10.212-10.213 c-3.325,0-6.414,1.9-6.414,4.87c0,3.087,2.494,4.749,8.195,7.362l6.53,3.206c5.701,2.731,7.956,7.127,7.956,10.689 C503.426,84.09,496.895,89.314,488.939,89.314z"/>
      <path fill="#464342" d="M525.514,89.314c-4.751,0-8.908-2.493-10.688-4.038c-0.594,0.595-1.662,2.376-1.899,4.038h-2.257V72.928 h2.375c0.95,7.837,6.412,12.468,13.419,12.468c3.8,0,6.888-2.137,6.888-5.699c0-3.087-2.731-5.463-7.601-7.719l-6.769-3.206 c-4.75-2.258-8.313-6.177-8.313-11.401c0-5.7,5.344-10.568,12.707-10.568c3.919,0,7.243,1.425,9.263,3.087 c0.593-0.475,1.187-1.782,1.542-3.208h2.257v14.014h-2.493c-0.832-5.582-3.919-10.213-10.212-10.213 c-3.325,0-6.414,1.9-6.414,4.87c0,3.087,2.494,4.749,8.195,7.362l6.53,3.206c5.701,2.731,7.956,7.127,7.956,10.689 C540,84.09,533.469,89.314,525.514,89.314z"/>
      <g>
        <path fill="#464342" d="M8.708,61.26c0,20.802,12.089,38.779,29.619,47.298L13.258,39.872 C10.342,46.408,8.708,53.641,8.708,61.26z"/>
        <path fill="#464342" d="M96.74,58.608c0-6.495-2.333-10.993-4.334-14.494c-2.664-4.329-5.161-7.995-5.161-12.324 c0-4.831,3.664-9.328,8.825-9.328c0.233,0,0.454,0.029,0.681,0.042c-9.35-8.566-21.807-13.796-35.489-13.796 c-18.36,0-34.513,9.42-43.91,23.688c1.233,0.037,2.395,0.063,3.382,0.063c5.497,0,14.006-0.667,14.006-0.667 c2.833-0.167,3.167,3.994,0.337,4.329c0,0-2.847,0.335-6.015,0.501L48.2,93.547l11.501-34.493l-8.188-22.434 c-2.83-0.166-5.511-0.501-5.511-0.501c-2.832-0.166-2.5-4.496,0.332-4.329c0,0,8.679,0.667,13.843,0.667 c5.496,0,14.006-0.667,14.006-0.667c2.835-0.167,3.168,3.994,0.337,4.329c0,0-2.853,0.335-6.015,0.501l18.992,56.494 l5.242-17.517C95.011,68.328,96.74,63.107,96.74,58.608z"/>
        <path fill="#464342" d="M62.184,65.857l-15.768,45.819c4.708,1.384,9.687,2.141,14.846,2.141c6.12,0,11.989-1.058,17.452-2.979 c-0.141-0.225-0.269-0.464-0.374-0.724L62.184,65.857z"/>
        <path fill="#464342" d="M107.376,36.046c0.226,1.674,0.354,3.471,0.354,5.404c0,5.333-0.996,11.328-3.996,18.824l-16.053,46.413 c15.624-9.111,26.133-26.038,26.133-45.426C113.815,52.124,111.481,43.532,107.376,36.046z"/>
        <path fill="#464342" d="M61.262,0C27.483,0,0,27.481,0,61.26c0,33.783,27.483,61.263,61.262,61.263 c33.778,0,61.265-27.48,61.265-61.263C122.526,27.481,95.04,0,61.262,0z M61.262,119.715c-32.23,0-58.453-26.223-58.453-58.455 c0-32.23,26.222-58.451,58.453-58.451c32.229,0,58.45,26.221,58.45,58.451C119.712,93.492,93.491,119.715,61.262,119.715z"/>
      </g>
    </g>
  </g>
</svg>